<svg width="1024" height="1024" viewBox="0 0 1024 1024" fill="none" xmlns="http://www.w3.org/2000/svg">
  <rect width="1024" height="1024" rx="224" fill="#F8FAFF"/>
  <path d="M190 322C190 278.922 224.922 244 268 244H756C799.078 244 834 278.922 834 322V722C834 765.078 799.078 800 756 800H268C224.922 800 190 765.078 190 722V322Z" fill="white"/>
  <path d="M190 322C190 278.922 224.922 244 268 244H756C799.078 244 834 278.922 834 322V392H190V322Z" fill="#1A73E8"/>
  <rect x="280" y="470" width="196" height="152" rx="36" fill="#E8F0FE"/>
  <rect x="548" y="470" width="196" height="152" rx="36" fill="#E6F4EA"/>
  <rect x="280" y="654" width="464" height="56" rx="28" fill="#F1F3F4"/>
  <path d="M320 182C320 165.431 333.431 152 350 152C366.569 152 380 165.431 380 182V292H320V182Z" fill="#1A73E8"/>
  <path d="M644 182C644 165.431 657.431 152 674 152C690.569 152 704 165.431 704 182V292H644V182Z" fill="#1A73E8"/>
  <path d="M378 553.684L430.735 501L454 524.256L378 600L326 548L349.265 524.735L378 553.684Z" fill="#1A73E8"/>
  <path d="M624 510C658.242 510 686 537.758 686 572C686 606.242 658.242 634 624 634C589.758 634 562 606.242 562 572C562 537.758 589.758 510 624 510Z" fill="#34A853"/>
  <path d="M624 542C626.761 542 629 544.239 629 547V567H648C650.761 567 653 569.239 653 572C653 574.761 650.761 577 648 577H624C621.239 577 619 574.761 619 572V547C619 544.239 621.239 542 624 542Z" fill="white"/>
  <rect x="190" y="244" width="644" height="556" rx="78" stroke="#D2E3FC" stroke-width="20"/>
</svg>
